<svg width="32" height="32" viewBox="0 0 32 32" fill="none" xmlns="http://www.w3.org/2000/svg">
<path d="M14.4 3.20947C13.5164 3.20947 12.8 3.92582 12.8 4.80947C12.8 5.69313 13.5164 6.40947 14.4 6.40947H17.6C18.4837 6.40947 19.2 5.69313 19.2 4.80947C19.2 3.92582 18.4837 3.20947 17.6 3.20947H14.4Z" fill="#6A3EA1"/>
<path fill-rule="evenodd" clip-rule="evenodd" d="M6.40002 8.00947C6.40002 6.24216 7.83271 4.80947 9.60002 4.80947C9.60002 7.46044 11.7491 9.60947 14.4 9.60947H17.6C20.251 9.60947 22.4 7.46044 22.4 4.80947C24.1673 4.80947 25.6 6.24216 25.6 8.00947V25.6095C25.6 27.3768 24.1673 28.8095 22.4 28.8095H9.60002C7.83271 28.8095 6.40002 27.3768 6.40002 25.6095V8.00947ZM21.9314 17.1408C22.5562 16.516 22.5562 15.5029 21.9314 14.8781C21.3066 14.2533 20.2935 14.2533 19.6687 14.8781L14.4 20.1467L12.3314 18.0781C11.7066 17.4533 10.6935 17.4533 10.0687 18.0781C9.44381 18.7029 9.44381 19.716 10.0687 20.3408L13.2687 23.5408C13.8935 24.1657 14.9066 24.1657 15.5314 23.5408L21.9314 17.1408Z" fill="#6A3EA1"/>
</svg>
